<svg width="297" height="353" viewBox="0 0 297 353" fill="none" xmlns="http://www.w3.org/2000/svg">
<path d="M247.902 186.458C247.744 157.548 260.82 135.727 287.289 119.658C272.479 98.4674 250.107 86.8089 220.567 84.5244C192.602 82.3188 162.038 100.831 150.852 100.831C139.036 100.831 111.938 85.3122 90.6688 85.3122C46.7129 86.0211 0 120.367 0 190.239C0 210.878 3.78115 232.199 11.3434 254.203C21.4265 283.113 57.8201 354.01 95.7891 352.828C115.64 352.356 129.662 338.728 155.5 338.728C180.55 338.728 193.548 352.828 215.683 352.828C253.967 352.277 286.895 287.84 296.505 258.851C245.144 234.668 247.902 187.955 247.902 186.458V186.458ZM203.315 57.1111C224.821 31.5883 222.851 8.35004 222.221 0C203.237 1.10283 181.259 12.9189 168.734 27.4921C154.948 43.0893 146.835 62.3889 148.568 84.1306C169.128 85.706 187.876 75.1503 203.315 57.1111V57.1111Z" fill="black"/>
</svg>
