<svg width="50" height="50" viewBox="0 0 50 50" fill="none" xmlns="http://www.w3.org/2000/svg">
<g clip-path="url(#clip0_44_76)">
<path d="M37.5 12.5H33.3334C33.3334 7.89582 29.6042 4.16666 25 4.16666C20.3959 4.16666 16.6667 7.89582 16.6667 12.5H12.5C10.2084 12.5 8.33337 14.375 8.33337 16.6667V41.6667C8.33337 43.9583 10.2084 45.8333 12.5 45.8333H37.5C39.7917 45.8333 41.6667 43.9583 41.6667 41.6667V16.6667C41.6667 14.375 39.7917 12.5 37.5 12.5ZM20.8334 20.8333C20.8334 21.9792 19.8959 22.9167 18.75 22.9167C17.6042 22.9167 16.6667 21.9792 16.6667 20.8333V16.6667H20.8334V20.8333ZM25 8.33332C27.2917 8.33332 29.1667 10.2083 29.1667 12.5H20.8334C20.8334 10.2083 22.7084 8.33332 25 8.33332ZM33.3334 20.8333C33.3334 21.9792 32.3959 22.9167 31.25 22.9167C30.1042 22.9167 29.1667 21.9792 29.1667 20.8333V16.6667H33.3334V20.8333Z" fill="white"/>
</g>
<defs>
<clipPath id="clip0_44_76">
<rect width="50" height="50" fill="white"/>
</clipPath>
</defs>
</svg>
