<svg width="102" height="100" viewBox="0 0 102 100" fill="none" xmlns="http://www.w3.org/2000/svg">
<path fill-rule="evenodd" clip-rule="evenodd" d="M52.1681 6.50783C51.4184 6.20736 50.5817 6.20736 49.8319 6.50783L12.3518 21.4986L27.4494 27.5338L66.0975 12.0783L52.1681 6.50783ZM74.5507 15.4634L35.9025 30.9189L51 36.9541L89.6482 21.4986L74.5507 15.4634V15.4634ZM94.9612 26.1396L54.1401 42.4681V92.2196L94.9612 75.8912V26.1459V26.1396ZM47.8599 92.2259V42.4618L7.03881 26.1396V75.8974L47.8599 92.2259V92.2259ZM47.502 0.673552C49.7475 -0.224517 52.2525 -0.224517 54.4981 0.673552L99.2694 18.5846C99.8515 18.8179 100.35 19.2201 100.702 19.7395C101.053 20.2588 101.241 20.8715 101.241 21.4986V75.8974C101.241 77.1524 100.864 78.3783 100.16 79.417C99.4557 80.4558 98.4565 81.2599 97.2912 81.7254L52.1681 99.7746C51.4184 100.075 50.5817 100.075 49.8319 99.7746L4.71514 81.7254C3.54861 81.2608 2.54812 80.4572 1.84286 79.4184C1.13759 78.3795 0.759932 77.1531 0.758636 75.8974L0.758636 21.4986C0.758782 20.8715 0.946688 20.2588 1.29815 19.7395C1.64961 19.2201 2.14852 18.8179 2.73061 18.5846L47.502 0.673552Z" fill="white"/>
</svg>
