<svg width="100" height="100" viewBox="0 0 100 100" fill="none" xmlns="http://www.w3.org/2000/svg">
<path d="M90.0418 78.4383C96.3998 72.7716 100 65.2186 100 57.3806C100 49.0506 96.1004 41.2603 89.0195 35.4433C82.1279 29.7838 73.0059 26.6665 63.3327 26.6665C53.6594 26.6665 44.5374 29.7838 37.6469 35.4437C30.5659 41.2603 26.6664 49.0506 26.6664 57.3806C26.6664 65.7105 30.5659 73.5008 37.6469 79.3178C44.5374 84.9778 53.6594 88.0948 63.3327 88.0948C64.6216 88.0948 65.9185 88.0379 67.2045 87.9248L69.4016 89.8292C76.9706 96.388 86.6502 99.9987 96.6656 99.9991H99.9989V92.9039L99.0227 91.9279C95.1715 88.0653 92.1197 83.4814 90.0418 78.4383V78.4383ZM73.7678 84.7909L69.3593 80.9699L67.8893 81.1501C66.3774 81.335 64.8558 81.4277 63.3327 81.4278C46.7912 81.4278 33.333 70.6402 33.333 57.3806C33.333 44.1209 46.7912 33.3331 63.3327 33.3331C79.8742 33.3331 93.3324 44.1207 93.3324 57.3806C93.3324 63.9867 90.0366 70.1542 84.052 74.7466L82.1323 76.2197L83.0181 78.727C84.8334 83.8477 87.5017 88.6245 90.9101 92.8554C84.5627 91.7959 78.6309 89.0053 73.7678 84.7909V84.7909Z" fill="white"/>
<path d="M9.20511 62.8068C12.3253 58.8572 14.7752 54.4215 16.4567 49.6772L17.3359 47.1824L15.4178 45.7104C9.77448 41.38 6.6666 35.568 6.6666 29.3449C6.6666 16.84 19.3767 6.6666 34.9996 6.6666C46.4928 6.6666 56.4092 12.1728 60.8487 20.0623C61.6731 20.0223 62.501 19.9998 63.3327 19.9998C65.0031 19.9998 66.6582 20.0808 68.298 20.2429C66.5824 15.7982 63.6029 11.7407 59.5065 8.37616C52.9311 2.97476 44.2287 0 34.9996 0C25.7706 0 17.0682 2.97476 10.4924 8.37616C3.72621 13.9342 0 21.381 0 29.3449C0 36.8032 3.40663 43.9895 9.42699 49.3953C7.4623 54.1234 4.59153 58.4214 0.976448 62.0471L0 63.0233V69.9993H3.3333C9.49721 69.9985 15.5763 68.5631 21.0896 65.8066C20.485 63.5152 20.1308 61.1651 20.0331 58.7973C16.6869 60.7585 13.0217 62.1157 9.20511 62.8068V62.8068Z" fill="white"/>
</svg>
