<svg width="100" height="100" viewBox="0 0 100 100" fill="none" xmlns="http://www.w3.org/2000/svg">
<path d="M50 0C22.3884 0 0 22.3884 0 50C0 77.6116 22.3884 100 50 100C77.6116 100 100 77.6116 100 50C100 22.3884 77.6116 0 50 0ZM50 91.5179C27.0759 91.5179 8.48214 72.9241 8.48214 50C8.48214 27.0759 27.0759 8.48214 50 8.48214C72.9241 8.48214 91.5179 27.0759 91.5179 50C91.5179 72.9241 72.9241 91.5179 50 91.5179ZM55.3237 47.4107L52.4888 46.7522V31.7634C56.7299 32.3438 59.3527 35 59.7991 38.2589C59.8549 38.7054 60.2344 39.029 60.6808 39.029H65.692C66.2165 39.029 66.6295 38.5714 66.5848 38.0469C65.904 31.0937 60.1786 26.6295 52.5335 25.8594V22.2098C52.5335 21.7187 52.1317 21.317 51.6406 21.317H48.5045C48.0134 21.317 47.6116 21.7187 47.6116 22.2098V25.8929C39.7098 26.6629 33.5268 31.0268 33.5268 39.1741C33.5268 46.7187 39.0848 50.3571 44.9219 51.7522L47.6786 52.4554V68.3817C42.7455 67.7232 39.9777 65.0893 39.4085 61.5402C39.3415 61.1161 38.9621 60.8036 38.5268 60.8036H33.3705C32.846 60.8036 32.433 61.25 32.4777 61.7746C32.9799 67.9129 37.6339 73.5603 47.567 74.2857V77.7902C47.567 78.2812 47.9688 78.683 48.4598 78.683H51.6295C52.1205 78.683 52.5223 78.2813 52.5223 77.779L52.5 74.2411C61.2388 73.471 67.4888 68.7946 67.4888 60.4018C67.4777 52.6563 62.5558 49.1964 55.3237 47.4107V47.4107ZM47.6674 45.6027C47.0424 45.4241 46.5179 45.2567 45.9933 45.0446C42.221 43.683 40.4688 41.4844 40.4688 38.6496C40.4688 34.5982 43.5379 32.2879 47.6674 31.7634V45.6027ZM52.4888 68.4152V53.4933C52.8348 53.5937 53.1473 53.6719 53.471 53.7388C58.75 55.346 60.5246 57.5781 60.5246 61.0045C60.5246 65.3683 57.2433 67.9911 52.4888 68.4152Z" fill="white"/>
</svg>
